<?xml version="1.0" encoding="UTF-8" standalone="no"?>
<!-- Created with Inkscape (http://www.inkscape.org/) -->

<svg
   width="210mm"
   height="297mm"
   viewBox="0 0 210 297"
   version="1.1"
   id="svg60592"
   inkscape:version="1.2.1 (9c6d41e410, 2022-07-14)"
   sodipodi:docname="lca_logo.svg"
   xmlns:inkscape="http://www.inkscape.org/namespaces/inkscape"
   xmlns:sodipodi="http://sodipodi.sourceforge.net/DTD/sodipodi-0.dtd"
   xmlns:xlink="http://www.w3.org/1999/xlink"
   xmlns="http://www.w3.org/2000/svg"
   xmlns:svg="http://www.w3.org/2000/svg">
  <sodipodi:namedview
     id="namedview60594"
     pagecolor="#ffffff"
     bordercolor="#cccccc"
     borderopacity="0"
     inkscape:showpageshadow="0"
     inkscape:pageopacity="0"
     inkscape:pagecheckerboard="false"
     inkscape:deskcolor="#d1d1d1"
     inkscape:document-units="mm"
     showgrid="false"
     inkscape:zoom="4.7572176"
     inkscape:cx="54.548693"
     inkscape:cy="54.443589"
     inkscape:window-width="2560"
     inkscape:window-height="1377"
     inkscape:window-x="3832"
     inkscape:window-y="-8"
     inkscape:window-maximized="1"
     inkscape:current-layer="g62918" />
  <defs
     id="defs60589">
    <color-profile
       name="Agfa-:-Swop-Standard"
       xlink:href="file:///C:/Windows/system32/spool/drivers/color/RSWOP.icm"
       id="color-profile62949" />
    <linearGradient
       inkscape:collect="always"
       xlink:href="#linearGradient246652"
       id="linearGradient246818"
       x1="128.64238"
       y1="55.153259"
       x2="146.78638"
       y2="55.153259"
       gradientUnits="userSpaceOnUse"
       gradientTransform="matrix(1.3303232,0.19956791,-0.19740525,1.3448975,-156.31755,-82.68284)" />
    <linearGradient
       inkscape:collect="always"
       id="linearGradient246652">
      <stop
         style="stop-color:#000000;stop-opacity:0;"
         offset="0"
         id="stop246650" />
      <stop
         style="stop-color:#008080;stop-opacity:1;"
         offset="1"
         id="stop246648" />
    </linearGradient>
    <marker
       style="overflow:visible"
       id="marker246406"
       refX="0"
       refY="0"
       orient="auto-start-reverse"
       inkscape:stockid="TriangleStart"
       markerWidth="5.3244081"
       markerHeight="6.155385"
       viewBox="0 0 5.3244081 6.1553851"
       inkscape:isstock="true"
       inkscape:collect="always"
       preserveAspectRatio="xMidYMid">
      <path
         transform="scale(0.5)"
         style="fill:context-stroke;fill-rule:evenodd;stroke:context-stroke;stroke-width:1pt"
         d="M 5.77,0 -2.88,5 V -5 Z"
         id="path246404" />
    </marker>
  </defs>
  <g
     inkscape:label="Ebene 1"
     inkscape:groupmode="layer"
     id="layer1">
    <g
       id="g61364">
      <g
         id="g61431">
        <g
           id="g61476"
           inkscape:export-filename="lca_logo.png"
           inkscape:export-xdpi="1000"
           inkscape:export-ydpi="1000">
          <g
             id="g61452"
             inkscape:export-filename="lca_logo.png"
             inkscape:export-xdpi="1000"
             inkscape:export-ydpi="1000">
            <g
               id="g61408"
               transform="matrix(0.90321918,0,0,1.0145875,2.4121203,-2.6755057)" />
          </g>
          <g
             id="g62918"
             inkscape:export-filename="lca_logo.png"
             inkscape:export-xdpi="1000"
             inkscape:export-ydpi="1000">
            <g
               id="g62940"
               inkscape:export-filename="lca_logo.png"
               inkscape:export-xdpi="1000"
               inkscape:export-ydpi="1000">
              <path
                 id="path246276"
                 style="fill:#00d3ff;fill-opacity:0.671053;fill-rule:evenodd;stroke:#2b7e00;stroke-width:0.196074;stroke-dasharray:0.784298, 0.196074;stroke-dashoffset:0;stroke-opacity:1"
                 d="m 8.7886004,9.6248454 c -0.61676,0.12467 -1.26629,0.28234 -1.73955,0.7296796 -0.41226,0.3817 -0.61066,0.99339 -0.47848,1.54544 0.1775,0.58633 0.71893,0.98398 1.28047,1.15389 0.59248,0.21364 1.22594,0.34563 1.85575,0.33043 0.4803896,-0.0577 0.9161796,-0.38283 1.1213996,-0.82435 0.31107,-0.55898 0.45221,-1.24953 0.2433,-1.86926 -0.18544,-0.54009 -0.68186,-0.9257696 -1.2337596,-1.0164796 -0.34546,-0.0635 -0.69921,-0.0642 -1.04913,-0.0495 z" />
              <path
                 id="path246276-7"
                 style="fill:#00d3ff;fill-opacity:0.671053;fill-rule:evenodd;stroke:#2b7e00;stroke-width:0.196074;stroke-dasharray:0.784298, 0.196074;stroke-dashoffset:0;stroke-opacity:1"
                 d="m 16.35188,7.2782854 c -0.33554,0.0122 -0.61058,0.23689 -0.86803,0.43059 -0.28082,0.22952 -0.61597,0.40809 -0.98032,0.44093 -0.31096,-0.0196 -0.66192,0.0539 -0.83895,0.34043 -0.1655,0.2578 -0.18399,0.59058 -0.15043,0.88909 0.0374,0.30185 0.20678,0.56621 0.41851,0.7748696 0.30268,0.29395 0.69845,0.46085 1.09647,0.57602 0.52235,0.17081 1.08692,0.2932 1.63269,0.16754 0.32894,-0.0851 0.63895,-0.24784 0.89573,-0.47269 0.26765,-0.26681 0.3949,-0.6358996 0.48615,-0.9958296 0.0888,-0.30849 0.0856,-0.6387 0.0156,-0.95067 -0.0864,-0.31779 -0.25708,-0.61893 -0.51299,-0.82724 -0.32952,-0.27977 -0.76955,-0.39547 -1.19438,-0.37304 z" />
              <path
                 id="path246276-8"
                 style="fill:#00d3ff;fill-opacity:0.671053;fill-rule:evenodd;stroke:#2b7e00;stroke-width:0.196074;stroke-dasharray:0.784298, 0.196074;stroke-dashoffset:0;stroke-opacity:1"
                 d="m 21.05637,12.151145 c -0.37131,0.0936 -0.74414,0.20649 -1.07959,0.39568 -0.27939,0.17352 -0.52055,0.41188 -0.68295,0.70105 -0.16461,0.3096 -0.2289,0.67798 -0.15138,1.02283 0.0631,0.31152 0.24817,0.59427 0.49811,0.78558 0.26649,0.19839 0.60354,0.22167 0.91914,0.26803 0.3921,0.0432 0.77409,0.14913 1.13451,0.31072 0.25948,0.11217 0.56925,0.20946 0.83837,0.0718 0.28344,-0.15476 0.45222,-0.44419 0.58839,-0.72762 0.15456,-0.3408 0.32202,-0.67669 0.44654,-1.03034 0.10721,-0.34586 0.10069,-0.73936 -0.0737,-1.0622 -0.17837,-0.32449 -0.52926,-0.50022 -0.87225,-0.58904 -0.4094,-0.10534 -0.82762,-0.18019 -1.25013,-0.19965 -0.10505,0.0177 -0.21015,0.0354 -0.31522,0.0532 z" />
              <path
                 id="path246276-0"
                 style="fill:#00d3ff;fill-opacity:0.671053;fill-rule:evenodd;stroke:#2b7e00;stroke-width:0.196074;stroke-dasharray:0.784298, 0.196074;stroke-dashoffset:0;stroke-opacity:1"
                 d="m 26.8772,8.0536854 c -0.4034,0.06 -0.80703,0.24725 -1.05439,0.58501 -0.38305,0.48393 -0.476,1.16205 -0.30111,1.7486696 0.12818,0.43377 0.38332,0.846 0.76712,1.09193 0.3133,0.19574 0.69523,0.13612 1.04482,0.13714 0.38096,-0.0267 0.74708,0.0916 1.10734,0.19952 0.29676,0.11258 0.65148,0.0998 0.90042,-0.11746 0.32297,-0.23863 0.51045,-0.61795 0.6301,-0.99466 0.11163,-0.38066 0.20173,-0.7880996 0.10079,-1.1819996 -0.0986,-0.43671 -0.38551,-0.83557 -0.78957,-1.02981 -0.32764,-0.15707 -0.69289,-0.20703 -1.04622,-0.27459 -0.40483,-0.0806 -0.81239,-0.1567 -1.22529,-0.17707 -0.0447,0.004 -0.0894,0.009 -0.13396,0.0136 z" />
              <path
                 id="path246276-4"
                 style="fill:#6fff00;fill-opacity:0.670588;fill-rule:evenodd;stroke:#2b7e00;stroke-width:0.196074;stroke-dasharray:0.784298, 0.196074;stroke-dashoffset:0;stroke-opacity:1"
                 d="m 10.52191,5.0079854 c -0.6167496,0.12467 -1.2662696,0.28234 -1.7395496,0.72968 -0.41226,0.38169 -0.61065,0.99339 -0.47847,1.54544 0.17749,0.58633 0.71893,0.98398 1.28046,1.15389 0.5924896,0.21365 1.2259496,0.34563 1.8557596,0.33043 0.48038,-0.0578 0.91618,-0.38284 1.1214,-0.82434 0.31106,-0.55898 0.4522,-1.24954 0.2433,-1.86927 -0.18542,-0.5401 -0.68186,-0.92575 -1.23376,-1.01649 -0.34547,-0.0635 -0.69921,-0.0642 -1.04914,-0.0493 z" />
              <path
                 id="path246276-9"
                 style="fill:#6fff00;fill-opacity:0.670588;fill-rule:evenodd;stroke:#2b7e00;stroke-width:0.196074;stroke-dasharray:0.784298, 0.196074;stroke-dashoffset:0;stroke-opacity:1"
                 d="m 15.4798,12.321105 c -0.37611,0.0347 -0.75408,0.0238 -1.13054,0.0469 -0.31494,0.0163 -0.62339,0.15463 -0.82981,0.39844 -0.22506,0.26012 -0.35983,0.59633 -0.39847,0.93836 -0.0291,0.3527 0.0818,0.71324 0.31019,0.98209 0.23783,0.30024 0.58178,0.49154 0.93979,0.60661 0.40877,0.15502 0.83488,0.26113 1.26704,0.32279 0.35571,0.049 0.73595,0.0693 1.07111,-0.0845 0.29569,-0.13958 0.52039,-0.39454 0.67263,-0.68172 0.16711,-0.29943 0.28392,-0.62937 0.32717,-0.97101 0.062,-0.31693 0.004,-0.6546 -0.16553,-0.92871 -0.16589,-0.2858 -0.45738,-0.46945 -0.76861,-0.55473 -0.34292,-0.1021 -0.70435,-0.1191 -1.05897,-0.0889 -0.0787,0.005 -0.15734,0.009 -0.236,0.0145 z" />
              <path
                 id="path246276-1"
                 style="fill:#6fff00;fill-opacity:0.670588;fill-rule:evenodd;stroke:#2b7e00;stroke-width:0.196074;stroke-dasharray:0.784298, 0.196074;stroke-dashoffset:0;stroke-opacity:1"
                 d="m 21.50554,6.3222954 c -0.35697,0.0836 -0.70237,0.21212 -1.04457,0.34249 -0.39844,0.17823 -0.72521,0.51366 -0.90618,0.91304 -0.18774,0.41016 -0.17741,0.91784 0.0685,1.30122 0.17046,0.28239 0.44275,0.48348 0.73343,0.62563 0.44928,0.23822 0.95455,0.3261 1.44298,0.44506 0.35045,0.0775 0.75596,0.0532 1.03492,-0.19916 0.24938,-0.21625 0.37817,-0.53513 0.45706,-0.84977 0.0767,-0.44117 0.0883,-0.89181 0.0683,-1.33838 -0.0485,-0.40757 -0.3473,-0.72151 -0.67349,-0.93648 -0.30104,-0.21186 -0.66617,-0.34791 -1.0365,-0.32756 -0.0481,0.008 -0.0964,0.0159 -0.14447,0.0239 z" />
              <path
                 id="path246276-2"
                 style="fill:#6fff00;fill-opacity:0.671053;fill-rule:evenodd;stroke:#2b7e00;stroke-width:0.196074;stroke-dasharray:0.784298, 0.196074;stroke-dashoffset:0;stroke-opacity:1"
                 d="m 26.84569,12.905325 c -0.43502,0.0735 -0.8214,0.32163 -1.13738,0.62403 -0.21145,0.25209 -0.34189,0.56669 -0.39591,0.89122 -0.0551,0.38337 0.0975,0.78084 0.3419,1.07194 0.24947,0.2962 0.61003,0.52508 1.00418,0.53084 0.42671,-0.006 0.85804,-0.0823 1.28254,-0.002 0.33587,0.0798 0.67436,0.28739 1.02708,0.16996 0.3525,-0.15887 0.53986,-0.52877 0.69653,-0.86419 0.1475,-0.31349 0.24394,-0.65826 0.22807,-1.00796 -0.0408,-0.31192 -0.25992,-0.57684 -0.53313,-0.71549 -0.32759,-0.14549 -0.66774,-0.26447 -1.00197,-0.39472 -0.33459,-0.11312 -0.66918,-0.24297 -1.02104,-0.28738 -0.1625,-0.023 -0.32729,-0.0217 -0.49087,-0.0152 z" />
              <path
                 style="fill:none;stroke:#007474;stroke-width:0.270447;stroke-linecap:butt;stroke-linejoin:miter;stroke-dasharray:0.540894, 0.270447;stroke-dashoffset:0;stroke-opacity:0.67514682"
                 d="m 10.64771,6.9163654 4.87113,7.0951496 6.153,-5.9288296 5.76844,6.5443896"
                 id="path246398" />
              <path
                 style="fill:none;stroke:#007474;stroke-width:0.270447;stroke-linecap:butt;stroke-linejoin:miter;stroke-dasharray:0.540894, 0.270447;stroke-dashoffset:0;stroke-opacity:0.67514682"
                 d="M 8.7890004,11.743655 16.15979,8.9574354 21.44752,13.881935 27.76074,9.9617654"
                 id="path246400" />
              <path
                 style="fill:none;stroke:url(#linearGradient246818);stroke-width:0.357779px;stroke-linecap:butt;stroke-linejoin:miter;stroke-opacity:1;marker-end:url(#marker246406)"
                 d="m 3.9356645,17.13441 c 11.3102095,3.73624 14.5822195,3.8296 22.9466195,3.72466"
                 id="path246402"
                 sodipodi:nodetypes="cc"
                 transform="matrix(0.90321918,0,0,1.0145875,2.4121203,-2.6755058)" />
              <path
                 style="fill:none;stroke:#008181;stroke-width:0.326876;stroke-linecap:butt;stroke-linejoin:miter;stroke-dasharray:none;stroke-opacity:0.29411766;marker-end:url(#marker246406)"
                 d="m 26.585388,20.890847 0.32243,-0.017"
                 id="path247146"
                 transform="matrix(0.90321918,0,0,1.0145875,2.4121203,-2.6755058)" />
              <text
                 xml:space="preserve"
                 style="font-style:normal;font-variant:normal;font-weight:bold;font-stretch:normal;font-size:2.11667px;line-height:1.25;font-family:sans-serif;-inkscape-font-specification:'sans-serif Bold';text-align:center;text-anchor:middle;stroke-width:0.264583;fill:#008080"
                 x="18.066561"
                 y="22.691833"
                 id="text61392"><tspan
                   sodipodi:role="line"
                   id="tspan61390"
                   style="font-style:normal;font-variant:normal;font-weight:bold;font-stretch:normal;font-family:sans-serif;-inkscape-font-specification:'sans-serif Bold';stroke-width:0.264583;fill:#008080"
                   x="18.066561"
                   y="22.691833">Live Cell Analysis (lca)</tspan></text>
            </g>
          </g>
        </g>
      </g>
    </g>
  </g>
</svg>
